<svg xmlns="http://www.w3.org/2000/svg" xmlns:xlink="http://www.w3.org/1999/xlink" width="500" zoomAndPan="magnify" viewBox="0 0 375 374.999991" height="500" preserveAspectRatio="xMidYMid meet" version="1.0"><defs><clipPath id="17ab83b93a"><path d="M 30.308594 26.277344 L 344.558594 26.277344 L 344.558594 348.777344 L 30.308594 348.777344 Z M 30.308594 26.277344 " clip-rule="nonzero"/></clipPath></defs><g clip-path="url(#17ab83b93a)"><path fill="#0fa65d" d="M 344.6875 197.199219 L 344.6875 298.890625 L 258.359375 348.71875 L 200.738281 315.449219 L 226.105469 300.808594 L 258.359375 319.441406 L 319.324219 284.230469 L 319.324219 211.816406 L 200.171875 143.042969 L 200.171875 200.132812 L 249.628906 228.6875 L 249.628906 186.21875 L 274.972656 200.855469 L 274.972656 257.96875 L 117.792969 348.71875 L 30.308594 298.207031 L 30.308594 197.199219 L 88.496094 163.613281 L 88.496094 192.890625 L 55.65625 211.855469 L 55.65625 283.605469 L 117.792969 319.441406 L 236.964844 250.628906 L 188.097656 222.40625 L 139.226562 250.628906 L 175.433594 271.53125 L 150.046875 286.1875 L 101.179688 257.96875 L 101.179688 76.441406 L 188.078125 26.277344 L 274.972656 76.441406 L 274.972656 142.300781 L 249.628906 127.660156 L 249.628906 91.101562 L 188.078125 55.558594 L 126.523438 91.101562 L 126.523438 228.6875 L 174.828125 200.796875 L 174.828125 143.042969 L 139.207031 163.613281 L 139.207031 134.332031 L 187.507812 106.445312 Z M 344.6875 197.199219 " fill-opacity="1" fill-rule="nonzero"/></g></svg>