<svg xmlns="http://www.w3.org/2000/svg" xmlns:xlink="http://www.w3.org/1999/xlink" width="500" zoomAndPan="magnify" viewBox="0 0 375 374.999991" height="500" preserveAspectRatio="xMidYMid meet" version="1.0"><defs><clipPath id="c2d0be992b"><path d="M 90.652344 88.167969 L 284.152344 88.167969 L 284.152344 286.917969 L 90.652344 286.917969 Z M 90.652344 88.167969 " clip-rule="nonzero"/></clipPath></defs><g clip-path="url(#c2d0be992b)"><path fill="#0fa65d" d="M 284.339844 193.472656 L 284.339844 256.125 L 231.152344 286.824219 L 195.652344 266.328125 L 211.28125 257.308594 L 231.152344 268.785156 L 268.714844 247.09375 L 268.714844 202.480469 L 195.304688 160.109375 L 195.304688 195.28125 L 225.773438 212.875 L 225.773438 186.707031 L 241.390625 195.726562 L 241.390625 230.914062 L 144.550781 286.824219 L 90.652344 255.703125 L 90.652344 193.472656 L 126.5 172.78125 L 126.5 190.820312 L 106.269531 202.503906 L 106.269531 246.707031 L 144.550781 268.785156 L 217.972656 226.390625 L 187.863281 209.003906 L 157.753906 226.390625 L 180.0625 239.269531 L 164.421875 248.300781 L 134.316406 230.914062 L 134.316406 119.074219 L 187.851562 88.171875 L 241.390625 119.074219 L 241.390625 159.648438 L 225.773438 150.628906 L 225.773438 128.105469 L 187.851562 106.207031 L 149.929688 128.105469 L 149.929688 212.875 L 179.6875 195.691406 L 179.6875 160.109375 L 157.742188 172.78125 L 157.742188 154.742188 L 187.503906 137.558594 Z M 284.339844 193.472656 " fill-opacity="1" fill-rule="nonzero"/></g></svg>