<svg xmlns="http://www.w3.org/2000/svg" xmlns:xlink="http://www.w3.org/1999/xlink" width="500" zoomAndPan="magnify" viewBox="0 0 375 374.999991" height="500" preserveAspectRatio="xMidYMid meet" version="1.0"><defs><g/></defs><g fill="#0fa65d" fill-opacity="1"><g transform="translate(30.379276, 167.104883)"><g><path d="M 11.625 -9.125 C 12.21875 -8.96875 12.75 -8.691406 13.21875 -8.296875 C 13.695312 -7.910156 14.070312 -7.4375 14.34375 -6.875 C 14.625 -6.320312 14.765625 -5.71875 14.765625 -5.0625 C 14.765625 -4.351562 14.617188 -3.691406 14.328125 -3.078125 C 14.035156 -2.460938 13.628906 -1.925781 13.109375 -1.46875 C 12.597656 -1.007812 12 -0.648438 11.3125 -0.390625 C 10.632812 -0.128906 9.894531 0 9.09375 0 L 2.3125 0 C 2.0625 0 1.9375 -0.117188 1.9375 -0.359375 L 1.9375 -15.96875 C 1.9375 -16.195312 2.0625 -16.3125 2.3125 -16.3125 L 8.625 -16.3125 C 9.320312 -16.3125 9.96875 -16.207031 10.5625 -16 C 11.164062 -15.789062 11.695312 -15.5 12.15625 -15.125 C 12.613281 -14.75 12.96875 -14.304688 13.21875 -13.796875 C 13.46875 -13.296875 13.59375 -12.757812 13.59375 -12.1875 C 13.59375 -11.738281 13.507812 -11.3125 13.34375 -10.90625 C 13.175781 -10.507812 12.941406 -10.15625 12.640625 -9.84375 C 12.347656 -9.539062 12.007812 -9.300781 11.625 -9.125 Z M 10.71875 -11.734375 C 10.71875 -12.085938 10.625 -12.398438 10.4375 -12.671875 C 10.25 -12.953125 10 -13.175781 9.6875 -13.34375 C 9.375 -13.507812 9.019531 -13.59375 8.625 -13.59375 L 4.96875 -13.59375 L 4.96875 -10.015625 L 8.625 -10.015625 C 9.019531 -10.015625 9.375 -10.082031 9.6875 -10.21875 C 10 -10.363281 10.25 -10.5625 10.4375 -10.8125 C 10.625 -11.070312 10.71875 -11.378906 10.71875 -11.734375 Z M 9.03125 -2.734375 C 9.53125 -2.734375 9.984375 -2.84375 10.390625 -3.0625 C 10.804688 -3.289062 11.132812 -3.59375 11.375 -3.96875 C 11.613281 -4.351562 11.734375 -4.78125 11.734375 -5.25 C 11.734375 -5.75 11.613281 -6.164062 11.375 -6.5 C 11.132812 -6.832031 10.804688 -7.085938 10.390625 -7.265625 C 9.984375 -7.441406 9.53125 -7.53125 9.03125 -7.53125 L 4.96875 -7.53125 L 4.96875 -2.734375 Z M 9.03125 -2.734375 "/></g></g></g><g fill="#0fa65d" fill-opacity="1"><g transform="translate(63.71377, 167.104883)"><g><path d="M 12.359375 -2.671875 C 12.585938 -2.671875 12.703125 -2.546875 12.703125 -2.296875 L 12.703125 -0.359375 C 12.703125 -0.117188 12.585938 0 12.359375 0 L 2.3125 0 C 2.0625 0 1.9375 -0.117188 1.9375 -0.359375 L 1.9375 -15.96875 C 1.9375 -16.21875 2.0625 -16.34375 2.3125 -16.34375 L 4.625 -16.34375 C 4.863281 -16.34375 4.984375 -16.21875 4.984375 -15.96875 L 4.984375 -2.671875 Z M 12.359375 -2.671875 "/></g></g></g><g fill="#0fa65d" fill-opacity="1"><g transform="translate(94.438371, 167.104883)"><g><path d="M 0.96875 -8.125 C 0.96875 -9.070312 1.109375 -9.96875 1.390625 -10.8125 C 1.671875 -11.664062 2.066406 -12.441406 2.578125 -13.140625 C 3.097656 -13.835938 3.707031 -14.441406 4.40625 -14.953125 C 5.101562 -15.472656 5.878906 -15.867188 6.734375 -16.140625 C 7.585938 -16.421875 8.488281 -16.5625 9.4375 -16.5625 C 10.375 -16.5625 11.269531 -16.421875 12.125 -16.140625 C 12.976562 -15.867188 13.753906 -15.472656 14.453125 -14.953125 C 15.160156 -14.441406 15.769531 -13.835938 16.28125 -13.140625 C 16.800781 -12.441406 17.195312 -11.664062 17.46875 -10.8125 C 17.75 -9.96875 17.890625 -9.070312 17.890625 -8.125 C 17.890625 -7.1875 17.75 -6.289062 17.46875 -5.4375 C 17.195312 -4.59375 16.800781 -3.820312 16.28125 -3.125 C 15.769531 -2.4375 15.160156 -1.835938 14.453125 -1.328125 C 13.753906 -0.816406 12.976562 -0.421875 12.125 -0.140625 C 11.269531 0.128906 10.375 0.265625 9.4375 0.265625 C 8.488281 0.265625 7.585938 0.128906 6.734375 -0.140625 C 5.878906 -0.421875 5.101562 -0.816406 4.40625 -1.328125 C 3.707031 -1.835938 3.097656 -2.4375 2.578125 -3.125 C 2.066406 -3.820312 1.671875 -4.59375 1.390625 -5.4375 C 1.109375 -6.289062 0.96875 -7.1875 0.96875 -8.125 Z M 4 -8.125 C 4 -7.375 4.132812 -6.671875 4.40625 -6.015625 C 4.6875 -5.367188 5.070312 -4.800781 5.5625 -4.3125 C 6.0625 -3.832031 6.640625 -3.453125 7.296875 -3.171875 C 7.960938 -2.898438 8.675781 -2.765625 9.4375 -2.765625 C 10.195312 -2.765625 10.90625 -2.898438 11.5625 -3.171875 C 12.21875 -3.453125 12.796875 -3.832031 13.296875 -4.3125 C 13.796875 -4.800781 14.179688 -5.367188 14.453125 -6.015625 C 14.734375 -6.671875 14.875 -7.375 14.875 -8.125 C 14.875 -8.894531 14.734375 -9.609375 14.453125 -10.265625 C 14.171875 -10.921875 13.78125 -11.492188 13.28125 -11.984375 C 12.789062 -12.472656 12.21875 -12.851562 11.5625 -13.125 C 10.90625 -13.40625 10.195312 -13.546875 9.4375 -13.546875 C 8.675781 -13.546875 7.960938 -13.40625 7.296875 -13.125 C 6.640625 -12.851562 6.0625 -12.472656 5.5625 -11.984375 C 5.070312 -11.492188 4.6875 -10.921875 4.40625 -10.265625 C 4.132812 -9.609375 4 -8.894531 4 -8.125 Z M 4 -8.125 "/></g></g></g><g fill="#0fa65d" fill-opacity="1"><g transform="translate(130.898278, 167.104883)"><g><path d="M 12.734375 -3.921875 C 12.867188 -4.023438 13.003906 -4.070312 13.140625 -4.0625 C 13.285156 -4.050781 13.390625 -4 13.453125 -3.90625 L 14.6875 -2.03125 C 14.738281 -1.945312 14.742188 -1.84375 14.703125 -1.71875 C 14.660156 -1.601562 14.578125 -1.503906 14.453125 -1.421875 C 14.023438 -1.078125 13.535156 -0.78125 12.984375 -0.53125 C 12.429688 -0.28125 11.851562 -0.0859375 11.25 0.046875 C 10.65625 0.191406 10.078125 0.265625 9.515625 0.265625 C 8.566406 0.265625 7.660156 0.128906 6.796875 -0.140625 C 5.941406 -0.421875 5.160156 -0.816406 4.453125 -1.328125 C 3.742188 -1.835938 3.128906 -2.441406 2.609375 -3.140625 C 2.085938 -3.835938 1.679688 -4.609375 1.390625 -5.453125 C 1.109375 -6.296875 0.96875 -7.191406 0.96875 -8.140625 C 0.96875 -9.085938 1.109375 -9.984375 1.390625 -10.828125 C 1.679688 -11.671875 2.085938 -12.441406 2.609375 -13.140625 C 3.128906 -13.847656 3.742188 -14.457031 4.453125 -14.96875 C 5.160156 -15.476562 5.941406 -15.867188 6.796875 -16.140625 C 7.660156 -16.421875 8.566406 -16.5625 9.515625 -16.5625 C 10.054688 -16.5625 10.628906 -16.492188 11.234375 -16.359375 C 11.835938 -16.222656 12.425781 -16.023438 13 -15.765625 C 13.570312 -15.515625 14.082031 -15.210938 14.53125 -14.859375 C 14.664062 -14.753906 14.738281 -14.644531 14.75 -14.53125 C 14.757812 -14.414062 14.738281 -14.316406 14.6875 -14.234375 L 13.453125 -12.390625 C 13.398438 -12.296875 13.304688 -12.238281 13.171875 -12.21875 C 13.046875 -12.195312 12.910156 -12.242188 12.765625 -12.359375 C 12.304688 -12.742188 11.785156 -13.035156 11.203125 -13.234375 C 10.628906 -13.441406 10.066406 -13.546875 9.515625 -13.546875 C 8.753906 -13.546875 8.035156 -13.40625 7.359375 -13.125 C 6.691406 -12.851562 6.101562 -12.46875 5.59375 -11.96875 C 5.09375 -11.476562 4.703125 -10.90625 4.421875 -10.25 C 4.140625 -9.59375 4 -8.890625 4 -8.140625 C 4 -7.390625 4.140625 -6.6875 4.421875 -6.03125 C 4.710938 -5.382812 5.109375 -4.816406 5.609375 -4.328125 C 6.117188 -3.835938 6.707031 -3.453125 7.375 -3.171875 C 8.039062 -2.898438 8.753906 -2.765625 9.515625 -2.765625 C 10.046875 -2.765625 10.597656 -2.863281 11.171875 -3.0625 C 11.753906 -3.269531 12.273438 -3.554688 12.734375 -3.921875 Z M 12.734375 -3.921875 "/></g></g></g><g fill="#0fa65d" fill-opacity="1"><g transform="translate(164.318698, 167.104883)"><g><path d="M 16.28125 -0.5625 C 16.375 -0.40625 16.394531 -0.269531 16.34375 -0.15625 C 16.300781 -0.0390625 16.195312 0.015625 16.03125 0.015625 L 13.421875 0.015625 C 13.242188 0.015625 13.085938 -0.0625 12.953125 -0.21875 L 7.828125 -9.0625 L 4.984375 -6.265625 L 4.984375 -0.34375 C 4.984375 -0.101562 4.863281 0.015625 4.625 0.015625 L 2.3125 0.015625 C 2.0625 0.015625 1.9375 -0.101562 1.9375 -0.34375 L 1.9375 -15.96875 C 1.9375 -16.21875 2.0625 -16.34375 2.3125 -16.34375 L 4.625 -16.34375 C 4.863281 -16.34375 4.984375 -16.21875 4.984375 -15.96875 L 4.984375 -10.125 L 11.0625 -16 C 11.1875 -16.125 11.296875 -16.207031 11.390625 -16.25 C 11.492188 -16.289062 11.617188 -16.3125 11.765625 -16.3125 L 14.421875 -16.3125 C 14.597656 -16.3125 14.707031 -16.238281 14.75 -16.09375 C 14.789062 -15.957031 14.75 -15.828125 14.625 -15.703125 L 10.015625 -11.1875 Z M 16.28125 -0.5625 "/></g></g></g><g fill="#0fa65d" fill-opacity="1"><g transform="translate(198.61982, 167.104883)"><g><path d="M 12.734375 -3.921875 C 12.867188 -4.023438 13.003906 -4.070312 13.140625 -4.0625 C 13.285156 -4.050781 13.390625 -4 13.453125 -3.90625 L 14.6875 -2.03125 C 14.738281 -1.945312 14.742188 -1.84375 14.703125 -1.71875 C 14.660156 -1.601562 14.578125 -1.503906 14.453125 -1.421875 C 14.023438 -1.078125 13.535156 -0.78125 12.984375 -0.53125 C 12.429688 -0.28125 11.851562 -0.0859375 11.25 0.046875 C 10.65625 0.191406 10.078125 0.265625 9.515625 0.265625 C 8.566406 0.265625 7.660156 0.128906 6.796875 -0.140625 C 5.941406 -0.421875 5.160156 -0.816406 4.453125 -1.328125 C 3.742188 -1.835938 3.128906 -2.441406 2.609375 -3.140625 C 2.085938 -3.835938 1.679688 -4.609375 1.390625 -5.453125 C 1.109375 -6.296875 0.96875 -7.191406 0.96875 -8.140625 C 0.96875 -9.085938 1.109375 -9.984375 1.390625 -10.828125 C 1.679688 -11.671875 2.085938 -12.441406 2.609375 -13.140625 C 3.128906 -13.847656 3.742188 -14.457031 4.453125 -14.96875 C 5.160156 -15.476562 5.941406 -15.867188 6.796875 -16.140625 C 7.660156 -16.421875 8.566406 -16.5625 9.515625 -16.5625 C 10.054688 -16.5625 10.628906 -16.492188 11.234375 -16.359375 C 11.835938 -16.222656 12.425781 -16.023438 13 -15.765625 C 13.570312 -15.515625 14.082031 -15.210938 14.53125 -14.859375 C 14.664062 -14.753906 14.738281 -14.644531 14.75 -14.53125 C 14.757812 -14.414062 14.738281 -14.316406 14.6875 -14.234375 L 13.453125 -12.390625 C 13.398438 -12.296875 13.304688 -12.238281 13.171875 -12.21875 C 13.046875 -12.195312 12.910156 -12.242188 12.765625 -12.359375 C 12.304688 -12.742188 11.785156 -13.035156 11.203125 -13.234375 C 10.628906 -13.441406 10.066406 -13.546875 9.515625 -13.546875 C 8.753906 -13.546875 8.035156 -13.40625 7.359375 -13.125 C 6.691406 -12.851562 6.101562 -12.46875 5.59375 -11.96875 C 5.09375 -11.476562 4.703125 -10.90625 4.421875 -10.25 C 4.140625 -9.59375 4 -8.890625 4 -8.140625 C 4 -7.390625 4.140625 -6.6875 4.421875 -6.03125 C 4.710938 -5.382812 5.109375 -4.816406 5.609375 -4.328125 C 6.117188 -3.835938 6.707031 -3.453125 7.375 -3.171875 C 8.039062 -2.898438 8.753906 -2.765625 9.515625 -2.765625 C 10.046875 -2.765625 10.597656 -2.863281 11.171875 -3.0625 C 11.753906 -3.269531 12.273438 -3.554688 12.734375 -3.921875 Z M 12.734375 -3.921875 "/></g></g></g><g fill="#0fa65d" fill-opacity="1"><g transform="translate(232.040228, 167.104883)"><g><path d="M 15.765625 -16.34375 C 16.015625 -16.34375 16.140625 -16.21875 16.140625 -15.96875 L 16.140625 -0.34375 C 16.140625 -0.101562 16.015625 0.015625 15.765625 0.015625 L 13.453125 0.015625 C 13.222656 0.015625 13.109375 -0.101562 13.109375 -0.34375 L 13.109375 -5.1875 L 4.984375 -5.1875 L 4.984375 -0.34375 C 4.984375 -0.101562 4.863281 0.015625 4.625 0.015625 L 2.3125 0.015625 C 2.0625 0.015625 1.9375 -0.101562 1.9375 -0.34375 L 1.9375 -15.96875 C 1.9375 -16.21875 2.0625 -16.34375 2.3125 -16.34375 L 4.625 -16.34375 C 4.863281 -16.34375 4.984375 -16.21875 4.984375 -15.96875 L 4.984375 -7.859375 L 13.109375 -7.859375 L 13.109375 -15.96875 C 13.109375 -16.21875 13.222656 -16.34375 13.453125 -16.34375 Z M 15.765625 -16.34375 "/></g></g></g><g fill="#0fa65d" fill-opacity="1"><g transform="translate(267.716107, 167.104883)"><g><path d="M 15.796875 -0.53125 C 15.867188 -0.375 15.875 -0.242188 15.8125 -0.140625 C 15.75 -0.0351562 15.628906 0.015625 15.453125 0.015625 L 13.140625 0.015625 C 13.015625 0.015625 12.90625 -0.0195312 12.8125 -0.09375 C 12.71875 -0.175781 12.644531 -0.273438 12.59375 -0.390625 L 11.9375 -1.984375 L 4.4375 -1.984375 L 3.78125 -0.40625 C 3.726562 -0.289062 3.65625 -0.191406 3.5625 -0.109375 C 3.46875 -0.0234375 3.351562 0.015625 3.21875 0.015625 L 0.921875 0.015625 C 0.742188 0.015625 0.617188 -0.0351562 0.546875 -0.140625 C 0.484375 -0.242188 0.488281 -0.375 0.5625 -0.53125 L 7.515625 -16.109375 C 7.566406 -16.242188 7.644531 -16.347656 7.75 -16.421875 C 7.863281 -16.492188 7.976562 -16.53125 8.09375 -16.53125 L 8.234375 -16.53125 C 8.367188 -16.53125 8.488281 -16.488281 8.59375 -16.40625 C 8.695312 -16.332031 8.773438 -16.234375 8.828125 -16.109375 Z M 5.5 -4.59375 L 10.859375 -4.59375 L 8.1875 -11.09375 Z M 5.5 -4.59375 "/></g></g></g><g fill="#0fa65d" fill-opacity="1"><g transform="translate(301.67354, 167.104883)"><g><path d="M 4.96875 -15.96875 L 4.96875 -0.34375 C 4.96875 -0.101562 4.847656 0.015625 4.609375 0.015625 L 2.296875 0.015625 C 2.054688 0.015625 1.9375 -0.101562 1.9375 -0.34375 L 1.9375 -15.96875 C 1.9375 -16.21875 2.054688 -16.34375 2.296875 -16.34375 L 4.609375 -16.34375 C 4.847656 -16.34375 4.96875 -16.21875 4.96875 -15.96875 Z M 4.96875 -15.96875 "/></g></g></g><g fill="#0fa65d" fill-opacity="1"><g transform="translate(326.190262, 167.104883)"><g><path d="M 16.109375 -16.34375 C 16.359375 -16.34375 16.484375 -16.222656 16.484375 -15.984375 L 16.484375 -0.296875 C 16.484375 -0.128906 16.441406 -0.00390625 16.359375 0.078125 C 16.273438 0.171875 16.175781 0.21875 16.0625 0.21875 L 16.03125 0.21875 C 15.894531 0.21875 15.78125 0.175781 15.6875 0.09375 C 15.601562 0.0195312 15.5 -0.0664062 15.375 -0.171875 L 4.984375 -10.03125 L 4.984375 -0.34375 C 4.984375 -0.101562 4.863281 0.015625 4.625 0.015625 L 2.3125 0.015625 C 2.0625 0.015625 1.9375 -0.101562 1.9375 -0.34375 L 1.9375 -16.0625 C 1.9375 -16.195312 1.972656 -16.304688 2.046875 -16.390625 C 2.128906 -16.484375 2.226562 -16.53125 2.34375 -16.53125 L 2.390625 -16.53125 C 2.503906 -16.53125 2.601562 -16.488281 2.6875 -16.40625 C 2.769531 -16.332031 2.867188 -16.242188 2.984375 -16.140625 L 13.453125 -6.234375 L 13.453125 -15.984375 C 13.453125 -16.222656 13.566406 -16.34375 13.796875 -16.34375 Z M 16.109375 -16.34375 "/></g></g></g><g fill="#0fa65d" fill-opacity="1"><g transform="translate(82.234741, 197.854881)"><g><path d="M 12.359375 -2.671875 C 12.585938 -2.671875 12.703125 -2.546875 12.703125 -2.296875 L 12.703125 -0.359375 C 12.703125 -0.117188 12.585938 0 12.359375 0 L 2.3125 0 C 2.0625 0 1.9375 -0.117188 1.9375 -0.359375 L 1.9375 -15.96875 C 1.9375 -16.21875 2.0625 -16.34375 2.3125 -16.34375 L 4.625 -16.34375 C 4.863281 -16.34375 4.984375 -16.21875 4.984375 -15.96875 L 4.984375 -2.671875 Z M 12.359375 -2.671875 "/></g></g></g><g fill="#0fa65d" fill-opacity="1"><g transform="translate(112.959342, 197.854881)"><g><path d="M 0.96875 -8.125 C 0.96875 -9.070312 1.109375 -9.96875 1.390625 -10.8125 C 1.671875 -11.664062 2.066406 -12.441406 2.578125 -13.140625 C 3.097656 -13.835938 3.707031 -14.441406 4.40625 -14.953125 C 5.101562 -15.472656 5.878906 -15.867188 6.734375 -16.140625 C 7.585938 -16.421875 8.488281 -16.5625 9.4375 -16.5625 C 10.375 -16.5625 11.269531 -16.421875 12.125 -16.140625 C 12.976562 -15.867188 13.753906 -15.472656 14.453125 -14.953125 C 15.160156 -14.441406 15.769531 -13.835938 16.28125 -13.140625 C 16.800781 -12.441406 17.195312 -11.664062 17.46875 -10.8125 C 17.75 -9.96875 17.890625 -9.070312 17.890625 -8.125 C 17.890625 -7.1875 17.75 -6.289062 17.46875 -5.4375 C 17.195312 -4.59375 16.800781 -3.820312 16.28125 -3.125 C 15.769531 -2.4375 15.160156 -1.835938 14.453125 -1.328125 C 13.753906 -0.816406 12.976562 -0.421875 12.125 -0.140625 C 11.269531 0.128906 10.375 0.265625 9.4375 0.265625 C 8.488281 0.265625 7.585938 0.128906 6.734375 -0.140625 C 5.878906 -0.421875 5.101562 -0.816406 4.40625 -1.328125 C 3.707031 -1.835938 3.097656 -2.4375 2.578125 -3.125 C 2.066406 -3.820312 1.671875 -4.59375 1.390625 -5.4375 C 1.109375 -6.289062 0.96875 -7.1875 0.96875 -8.125 Z M 4 -8.125 C 4 -7.375 4.132812 -6.671875 4.40625 -6.015625 C 4.6875 -5.367188 5.070312 -4.800781 5.5625 -4.3125 C 6.0625 -3.832031 6.640625 -3.453125 7.296875 -3.171875 C 7.960938 -2.898438 8.675781 -2.765625 9.4375 -2.765625 C 10.195312 -2.765625 10.90625 -2.898438 11.5625 -3.171875 C 12.21875 -3.453125 12.796875 -3.832031 13.296875 -4.3125 C 13.796875 -4.800781 14.179688 -5.367188 14.453125 -6.015625 C 14.734375 -6.671875 14.875 -7.375 14.875 -8.125 C 14.875 -8.894531 14.734375 -9.609375 14.453125 -10.265625 C 14.171875 -10.921875 13.78125 -11.492188 13.28125 -11.984375 C 12.789062 -12.472656 12.21875 -12.851562 11.5625 -13.125 C 10.90625 -13.40625 10.195312 -13.546875 9.4375 -13.546875 C 8.675781 -13.546875 7.960938 -13.40625 7.296875 -13.125 C 6.640625 -12.851562 6.0625 -12.472656 5.5625 -11.984375 C 5.070312 -11.492188 4.6875 -10.921875 4.40625 -10.265625 C 4.132812 -9.609375 4 -8.894531 4 -8.125 Z M 4 -8.125 "/></g></g></g><g fill="#0fa65d" fill-opacity="1"><g transform="translate(149.419252, 197.854881)"><g><path d="M 0.640625 -14.140625 L 0.640625 -15.84375 C 0.640625 -16.15625 0.796875 -16.3125 1.109375 -16.3125 L 12.296875 -16.3125 C 12.429688 -16.3125 12.539062 -16.269531 12.625 -16.1875 C 12.707031 -16.101562 12.75 -15.988281 12.75 -15.84375 L 12.75 -14.140625 C 12.75 -13.828125 12.597656 -13.671875 12.296875 -13.671875 L 8.203125 -13.671875 L 8.203125 -0.46875 C 8.203125 -0.144531 8.039062 0.015625 7.71875 0.015625 L 5.640625 0.015625 C 5.328125 0.015625 5.171875 -0.144531 5.171875 -0.46875 L 5.171875 -13.671875 L 1.109375 -13.671875 C 0.960938 -13.671875 0.847656 -13.707031 0.765625 -13.78125 C 0.679688 -13.863281 0.640625 -13.984375 0.640625 -14.140625 Z M 0.640625 -14.140625 "/></g></g></g><g fill="#0fa65d" fill-opacity="1"><g transform="translate(180.401616, 197.854881)"><g><path d="M 0.640625 -14.140625 L 0.640625 -15.84375 C 0.640625 -16.15625 0.796875 -16.3125 1.109375 -16.3125 L 12.296875 -16.3125 C 12.429688 -16.3125 12.539062 -16.269531 12.625 -16.1875 C 12.707031 -16.101562 12.75 -15.988281 12.75 -15.84375 L 12.75 -14.140625 C 12.75 -13.828125 12.597656 -13.671875 12.296875 -13.671875 L 8.203125 -13.671875 L 8.203125 -0.46875 C 8.203125 -0.144531 8.039062 0.015625 7.71875 0.015625 L 5.640625 0.015625 C 5.328125 0.015625 5.171875 -0.144531 5.171875 -0.46875 L 5.171875 -13.671875 L 1.109375 -13.671875 C 0.960938 -13.671875 0.847656 -13.707031 0.765625 -13.78125 C 0.679688 -13.863281 0.640625 -13.984375 0.640625 -14.140625 Z M 0.640625 -14.140625 "/></g></g></g><g fill="#0fa65d" fill-opacity="1"><g transform="translate(211.383987, 197.854881)"><g><path d="M 13.765625 -2.875 C 13.960938 -2.875 14.117188 -2.820312 14.234375 -2.71875 C 14.359375 -2.613281 14.421875 -2.46875 14.421875 -2.28125 L 14.421875 -0.46875 C 14.421875 -0.332031 14.375 -0.21875 14.28125 -0.125 C 14.1875 -0.0390625 14.066406 0 13.921875 0 L 2.421875 0 C 2.097656 0 1.9375 -0.15625 1.9375 -0.46875 L 1.9375 -15.828125 C 1.9375 -16.148438 2.097656 -16.3125 2.421875 -16.3125 L 13.703125 -16.3125 C 13.859375 -16.3125 13.976562 -16.269531 14.0625 -16.1875 C 14.144531 -16.101562 14.1875 -15.988281 14.1875 -15.84375 L 14.1875 -13.9375 C 14.1875 -13.601562 14.023438 -13.4375 13.703125 -13.4375 L 4.984375 -13.4375 L 4.984375 -8.9375 L 11.8125 -8.9375 C 11.988281 -8.9375 12.125 -8.894531 12.21875 -8.8125 C 12.320312 -8.726562 12.375 -8.601562 12.375 -8.4375 L 12.375 -6.640625 C 12.375 -6.492188 12.320312 -6.375 12.21875 -6.28125 C 12.125 -6.195312 11.988281 -6.15625 11.8125 -6.15625 L 4.984375 -6.15625 L 4.984375 -2.875 Z M 13.765625 -2.875 "/></g></g></g><g fill="#0fa65d" fill-opacity="1"><g transform="translate(244.492933, 197.854881)"><g><path d="M 12.1875 -4.828125 L 14.390625 -0.546875 C 14.460938 -0.390625 14.46875 -0.253906 14.40625 -0.140625 C 14.351562 -0.0351562 14.242188 0.015625 14.078125 0.015625 L 11.703125 0.015625 C 11.609375 0.015625 11.507812 -0.0195312 11.40625 -0.09375 C 11.300781 -0.175781 11.21875 -0.273438 11.15625 -0.390625 L 9.46875 -3.84375 C 9.289062 -3.8125 9.109375 -3.789062 8.921875 -3.78125 C 8.734375 -3.769531 8.546875 -3.765625 8.359375 -3.765625 L 4.984375 -3.765625 L 4.984375 -0.46875 C 4.984375 -0.320312 4.9375 -0.203125 4.84375 -0.109375 C 4.75 -0.0234375 4.628906 0.015625 4.484375 0.015625 L 2.421875 0.015625 C 2.285156 0.015625 2.171875 -0.0234375 2.078125 -0.109375 C 1.984375 -0.203125 1.9375 -0.320312 1.9375 -0.46875 L 1.9375 -15.859375 C 1.9375 -15.992188 1.984375 -16.101562 2.078125 -16.1875 C 2.171875 -16.269531 2.285156 -16.3125 2.421875 -16.3125 L 2.96875 -16.3125 C 3.28125 -16.3125 3.585938 -16.3125 3.890625 -16.3125 C 4.191406 -16.3125 4.410156 -16.3125 4.546875 -16.3125 L 8.359375 -16.3125 C 9.316406 -16.3125 10.195312 -16.15625 11 -15.84375 C 11.800781 -15.539062 12.492188 -15.101562 13.078125 -14.53125 C 13.671875 -13.96875 14.128906 -13.296875 14.453125 -12.515625 C 14.785156 -11.742188 14.953125 -10.898438 14.953125 -9.984375 C 14.953125 -8.878906 14.703125 -7.878906 14.203125 -6.984375 C 13.710938 -6.097656 13.039062 -5.378906 12.1875 -4.828125 Z M 8.171875 -6.3125 C 8.898438 -6.3125 9.546875 -6.46875 10.109375 -6.78125 C 10.671875 -7.09375 11.113281 -7.523438 11.4375 -8.078125 C 11.757812 -8.640625 11.921875 -9.285156 11.921875 -10.015625 C 11.921875 -10.546875 11.828125 -11.03125 11.640625 -11.46875 C 11.453125 -11.914062 11.1875 -12.300781 10.84375 -12.625 C 10.507812 -12.957031 10.113281 -13.210938 9.65625 -13.390625 C 9.195312 -13.578125 8.703125 -13.671875 8.171875 -13.671875 L 4.984375 -13.671875 L 4.984375 -6.3125 Z M 8.171875 -6.3125 "/></g></g></g><g fill="#0fa65d" fill-opacity="1"><g transform="translate(278.385913, 197.854881)"><g><path d="M 13.71875 -16.34375 C 13.882812 -16.34375 14 -16.289062 14.0625 -16.1875 C 14.125 -16.082031 14.117188 -15.941406 14.046875 -15.765625 L 8.6875 -6.453125 L 8.6875 -0.46875 C 8.6875 -0.144531 8.535156 0.015625 8.234375 0.015625 L 6.140625 0.015625 C 5.816406 0.015625 5.65625 -0.144531 5.65625 -0.46875 L 5.65625 -6.484375 L 0.3125 -15.765625 C 0.238281 -15.953125 0.234375 -16.09375 0.296875 -16.1875 C 0.367188 -16.289062 0.488281 -16.34375 0.65625 -16.34375 L 3.09375 -16.34375 C 3.195312 -16.34375 3.300781 -16.300781 3.40625 -16.21875 C 3.507812 -16.144531 3.59375 -16.046875 3.65625 -15.921875 L 7.171875 -9.546875 L 10.6875 -15.9375 C 10.84375 -16.207031 11.039062 -16.34375 11.28125 -16.34375 Z M 13.71875 -16.34375 "/></g></g></g></svg>