<svg xmlns="http://www.w3.org/2000/svg" xmlns:xlink="http://www.w3.org/1999/xlink" width="500" zoomAndPan="magnify" viewBox="0 0 375 374.999991" height="500" preserveAspectRatio="xMidYMid meet" version="1.0"><defs><g/><clipPath id="48ead4212c"><path d="M 114.375 89.648438 L 260.625 89.648438 L 260.625 239.648438 L 114.375 239.648438 Z M 114.375 89.648438 " clip-rule="nonzero"/></clipPath></defs><g clip-path="url(#48ead4212c)"><path fill="#0fa65d" d="M 260.625 169.15625 L 260.625 216.464844 L 220.464844 239.648438 L 193.660156 224.167969 L 205.460938 217.359375 L 220.464844 226.027344 L 248.824219 209.648438 L 248.824219 175.960938 L 193.394531 143.964844 L 193.394531 170.523438 L 216.402344 183.808594 L 216.402344 164.050781 L 228.195312 170.859375 L 228.195312 197.429688 L 155.074219 239.648438 L 114.375 216.148438 L 114.375 169.15625 L 141.445312 153.535156 L 141.445312 167.15625 L 126.167969 175.976562 L 126.167969 209.355469 L 155.074219 226.027344 L 210.511719 194.015625 L 187.777344 180.886719 L 165.042969 194.015625 L 181.886719 203.738281 L 170.078125 210.558594 L 147.34375 197.429688 L 147.34375 112.980469 L 187.769531 89.648438 L 228.195312 112.980469 L 228.195312 143.621094 L 216.402344 136.808594 L 216.402344 119.800781 L 187.769531 103.265625 L 159.132812 119.800781 L 159.132812 183.808594 L 181.605469 170.832031 L 181.605469 143.964844 L 165.035156 153.535156 L 165.035156 139.914062 L 187.503906 126.941406 Z M 260.625 169.15625 " fill-opacity="1" fill-rule="nonzero"/></g><g fill="#0fa65d" fill-opacity="1"><g transform="translate(142.75428, 273.975303)"><g><path d="M 15.359375 -12.0625 C 16.148438 -11.84375 16.859375 -11.472656 17.484375 -10.953125 C 18.109375 -10.441406 18.601562 -9.820312 18.96875 -9.09375 C 19.332031 -8.363281 19.515625 -7.5625 19.515625 -6.6875 C 19.515625 -5.75 19.320312 -4.875 18.9375 -4.0625 C 18.550781 -3.257812 18.015625 -2.550781 17.328125 -1.9375 C 16.648438 -1.320312 15.859375 -0.84375 14.953125 -0.5 C 14.054688 -0.164062 13.082031 0 12.03125 0 L 3.046875 0 C 2.722656 0 2.5625 -0.160156 2.5625 -0.484375 L 2.5625 -21.09375 C 2.5625 -21.40625 2.722656 -21.5625 3.046875 -21.5625 L 11.40625 -21.5625 C 12.320312 -21.5625 13.175781 -21.421875 13.96875 -21.140625 C 14.757812 -20.867188 15.457031 -20.484375 16.0625 -19.984375 C 16.664062 -19.484375 17.132812 -18.898438 17.46875 -18.234375 C 17.800781 -17.578125 17.96875 -16.863281 17.96875 -16.09375 C 17.96875 -15.507812 17.859375 -14.953125 17.640625 -14.421875 C 17.421875 -13.890625 17.113281 -13.421875 16.71875 -13.015625 C 16.320312 -12.609375 15.867188 -12.289062 15.359375 -12.0625 Z M 14.171875 -15.515625 C 14.171875 -15.984375 14.046875 -16.398438 13.796875 -16.765625 C 13.554688 -17.128906 13.226562 -17.414062 12.8125 -17.625 C 12.394531 -17.84375 11.925781 -17.953125 11.40625 -17.953125 L 6.578125 -17.953125 L 6.578125 -13.234375 L 11.40625 -13.234375 C 11.925781 -13.234375 12.394531 -13.320312 12.8125 -13.5 C 13.226562 -13.6875 13.554688 -13.953125 13.796875 -14.296875 C 14.046875 -14.640625 14.171875 -15.046875 14.171875 -15.515625 Z M 11.9375 -3.625 C 12.601562 -3.625 13.203125 -3.769531 13.734375 -4.0625 C 14.273438 -4.351562 14.703125 -4.75 15.015625 -5.25 C 15.335938 -5.75 15.5 -6.3125 15.5 -6.9375 C 15.5 -7.59375 15.335938 -8.140625 15.015625 -8.578125 C 14.703125 -9.023438 14.273438 -9.363281 13.734375 -9.59375 C 13.203125 -9.832031 12.601562 -9.953125 11.9375 -9.953125 L 6.578125 -9.953125 L 6.578125 -3.625 Z M 11.9375 -3.625 "/></g></g></g><g fill="#0fa65d" fill-opacity="1"><g transform="translate(166.460085, 273.975303)"><g><path d="M 16.328125 -3.515625 C 16.640625 -3.515625 16.796875 -3.351562 16.796875 -3.03125 L 16.796875 -0.484375 C 16.796875 -0.160156 16.640625 0 16.328125 0 L 3.046875 0 C 2.722656 0 2.5625 -0.160156 2.5625 -0.484375 L 2.5625 -21.109375 C 2.5625 -21.429688 2.722656 -21.59375 3.046875 -21.59375 L 6.125 -21.59375 C 6.4375 -21.59375 6.59375 -21.429688 6.59375 -21.109375 L 6.59375 -3.515625 Z M 16.328125 -3.515625 "/></g></g></g><g fill="#0fa65d" fill-opacity="1"><g transform="translate(186.716123, 273.975303)"><g><path d="M 1.28125 -10.75 C 1.28125 -12 1.460938 -13.179688 1.828125 -14.296875 C 2.203125 -15.421875 2.726562 -16.441406 3.40625 -17.359375 C 4.09375 -18.285156 4.898438 -19.085938 5.828125 -19.765625 C 6.753906 -20.441406 7.78125 -20.960938 8.90625 -21.328125 C 10.03125 -21.703125 11.21875 -21.890625 12.46875 -21.890625 C 13.71875 -21.890625 14.90625 -21.703125 16.03125 -21.328125 C 17.15625 -20.960938 18.179688 -20.441406 19.109375 -19.765625 C 20.035156 -19.085938 20.835938 -18.285156 21.515625 -17.359375 C 22.203125 -16.441406 22.726562 -15.421875 23.09375 -14.296875 C 23.46875 -13.179688 23.65625 -12 23.65625 -10.75 C 23.65625 -9.5 23.46875 -8.3125 23.09375 -7.1875 C 22.726562 -6.070312 22.203125 -5.054688 21.515625 -4.140625 C 20.835938 -3.222656 20.035156 -2.425781 19.109375 -1.75 C 18.179688 -1.082031 17.15625 -0.566406 16.03125 -0.203125 C 14.90625 0.160156 13.71875 0.34375 12.46875 0.34375 C 11.21875 0.34375 10.03125 0.160156 8.90625 -0.203125 C 7.78125 -0.566406 6.753906 -1.082031 5.828125 -1.75 C 4.898438 -2.425781 4.09375 -3.222656 3.40625 -4.140625 C 2.726562 -5.054688 2.203125 -6.070312 1.828125 -7.1875 C 1.460938 -8.3125 1.28125 -9.5 1.28125 -10.75 Z M 5.28125 -10.75 C 5.28125 -9.75 5.460938 -8.816406 5.828125 -7.953125 C 6.191406 -7.097656 6.703125 -6.347656 7.359375 -5.703125 C 8.015625 -5.066406 8.78125 -4.566406 9.65625 -4.203125 C 10.53125 -3.835938 11.46875 -3.65625 12.46875 -3.65625 C 13.476562 -3.65625 14.414062 -3.835938 15.28125 -4.203125 C 16.144531 -4.566406 16.90625 -5.066406 17.5625 -5.703125 C 18.226562 -6.347656 18.742188 -7.097656 19.109375 -7.953125 C 19.472656 -8.816406 19.65625 -9.75 19.65625 -10.75 C 19.65625 -11.757812 19.46875 -12.695312 19.09375 -13.5625 C 18.726562 -14.425781 18.21875 -15.179688 17.5625 -15.828125 C 16.90625 -16.484375 16.140625 -16.992188 15.265625 -17.359375 C 14.398438 -17.722656 13.46875 -17.90625 12.46875 -17.90625 C 11.46875 -17.90625 10.53125 -17.722656 9.65625 -17.359375 C 8.78125 -16.992188 8.015625 -16.484375 7.359375 -15.828125 C 6.710938 -15.179688 6.203125 -14.425781 5.828125 -13.5625 C 5.460938 -12.695312 5.28125 -11.757812 5.28125 -10.75 Z M 5.28125 -10.75 "/></g></g></g><g fill="#0fa65d" fill-opacity="1"><g transform="translate(214.553118, 273.975303)"><g><path d="M 0.84375 -18.703125 L 0.84375 -20.9375 C 0.84375 -21.351562 1.050781 -21.5625 1.46875 -21.5625 L 16.25 -21.5625 C 16.4375 -21.5625 16.582031 -21.503906 16.6875 -21.390625 C 16.800781 -21.273438 16.859375 -21.125 16.859375 -20.9375 L 16.859375 -18.703125 C 16.859375 -18.273438 16.65625 -18.0625 16.25 -18.0625 L 10.828125 -18.0625 L 10.828125 -0.609375 C 10.828125 -0.191406 10.613281 0.015625 10.1875 0.015625 L 7.453125 0.015625 C 7.035156 0.015625 6.828125 -0.191406 6.828125 -0.609375 L 6.828125 -18.0625 L 1.46875 -18.0625 C 1.269531 -18.0625 1.113281 -18.113281 1 -18.21875 C 0.894531 -18.332031 0.84375 -18.492188 0.84375 -18.703125 Z M 0.84375 -18.703125 "/></g></g></g><g fill="#0fa65d" fill-opacity="1"><g transform="translate(128.153692, 289.439097)"><g><path d="M 4.390625 -3.453125 C 4.617188 -3.390625 4.820312 -3.285156 5 -3.140625 C 5.175781 -2.992188 5.316406 -2.8125 5.421875 -2.59375 C 5.523438 -2.382812 5.578125 -2.15625 5.578125 -1.90625 C 5.578125 -1.644531 5.519531 -1.394531 5.40625 -1.15625 C 5.300781 -0.925781 5.148438 -0.722656 4.953125 -0.546875 C 4.753906 -0.378906 4.523438 -0.242188 4.265625 -0.140625 C 4.015625 -0.046875 3.738281 0 3.4375 0 L 0.875 0 C 0.78125 0 0.734375 -0.046875 0.734375 -0.140625 L 0.734375 -6.03125 C 0.734375 -6.125 0.78125 -6.171875 0.875 -6.171875 L 3.265625 -6.171875 C 3.523438 -6.171875 3.765625 -6.128906 3.984375 -6.046875 C 4.210938 -5.960938 4.410156 -5.847656 4.578125 -5.703125 C 4.753906 -5.566406 4.890625 -5.40625 4.984375 -5.21875 C 5.085938 -5.03125 5.140625 -4.828125 5.140625 -4.609375 C 5.140625 -4.429688 5.109375 -4.265625 5.046875 -4.109375 C 4.984375 -3.960938 4.894531 -3.832031 4.78125 -3.71875 C 4.664062 -3.601562 4.535156 -3.515625 4.390625 -3.453125 Z M 4.046875 -4.4375 C 4.046875 -4.570312 4.007812 -4.691406 3.9375 -4.796875 C 3.875 -4.898438 3.78125 -4.984375 3.65625 -5.046875 C 3.539062 -5.109375 3.410156 -5.140625 3.265625 -5.140625 L 1.875 -5.140625 L 1.875 -3.78125 L 3.265625 -3.78125 C 3.410156 -3.78125 3.539062 -3.804688 3.65625 -3.859375 C 3.78125 -3.910156 3.875 -3.984375 3.9375 -4.078125 C 4.007812 -4.179688 4.046875 -4.300781 4.046875 -4.4375 Z M 3.40625 -1.03125 C 3.601562 -1.03125 3.773438 -1.070312 3.921875 -1.15625 C 4.078125 -1.238281 4.203125 -1.351562 4.296875 -1.5 C 4.390625 -1.644531 4.4375 -1.804688 4.4375 -1.984375 C 4.4375 -2.171875 4.390625 -2.328125 4.296875 -2.453125 C 4.203125 -2.578125 4.078125 -2.671875 3.921875 -2.734375 C 3.773438 -2.804688 3.601562 -2.84375 3.40625 -2.84375 L 1.875 -2.84375 L 1.875 -1.03125 Z M 3.40625 -1.03125 "/></g></g></g><g fill="#0fa65d" fill-opacity="1"><g transform="translate(140.743356, 289.439097)"><g><path d="M 4.671875 -1 C 4.753906 -1 4.796875 -0.957031 4.796875 -0.875 L 4.796875 -0.140625 C 4.796875 -0.046875 4.753906 0 4.671875 0 L 0.875 0 C 0.78125 0 0.734375 -0.046875 0.734375 -0.140625 L 0.734375 -6.03125 C 0.734375 -6.125 0.78125 -6.171875 0.875 -6.171875 L 1.75 -6.171875 C 1.84375 -6.171875 1.890625 -6.125 1.890625 -6.03125 L 1.890625 -1 Z M 4.671875 -1 "/></g></g></g><g fill="#0fa65d" fill-opacity="1"><g transform="translate(152.347234, 289.439097)"><g><path d="M 0.359375 -3.078125 C 0.359375 -3.429688 0.410156 -3.765625 0.515625 -4.078125 C 0.628906 -4.398438 0.78125 -4.691406 0.96875 -4.953125 C 1.164062 -5.222656 1.394531 -5.453125 1.65625 -5.640625 C 1.925781 -5.835938 2.222656 -5.988281 2.546875 -6.09375 C 2.867188 -6.207031 3.207031 -6.265625 3.5625 -6.265625 C 3.914062 -6.265625 4.253906 -6.207031 4.578125 -6.09375 C 4.898438 -5.988281 5.191406 -5.835938 5.453125 -5.640625 C 5.722656 -5.453125 5.957031 -5.222656 6.15625 -4.953125 C 6.351562 -4.691406 6.503906 -4.398438 6.609375 -4.078125 C 6.710938 -3.765625 6.765625 -3.429688 6.765625 -3.078125 C 6.765625 -2.710938 6.710938 -2.367188 6.609375 -2.046875 C 6.503906 -1.734375 6.351562 -1.445312 6.15625 -1.1875 C 5.957031 -0.925781 5.722656 -0.695312 5.453125 -0.5 C 5.191406 -0.3125 4.898438 -0.164062 4.578125 -0.0625 C 4.253906 0.0390625 3.914062 0.09375 3.5625 0.09375 C 3.207031 0.09375 2.867188 0.0390625 2.546875 -0.0625 C 2.222656 -0.164062 1.925781 -0.3125 1.65625 -0.5 C 1.394531 -0.695312 1.164062 -0.925781 0.96875 -1.1875 C 0.78125 -1.445312 0.628906 -1.734375 0.515625 -2.046875 C 0.410156 -2.367188 0.359375 -2.710938 0.359375 -3.078125 Z M 1.515625 -3.078125 C 1.515625 -2.785156 1.566406 -2.515625 1.671875 -2.265625 C 1.773438 -2.023438 1.921875 -1.8125 2.109375 -1.625 C 2.296875 -1.445312 2.515625 -1.304688 2.765625 -1.203125 C 3.015625 -1.097656 3.28125 -1.046875 3.5625 -1.046875 C 3.851562 -1.046875 4.117188 -1.097656 4.359375 -1.203125 C 4.609375 -1.304688 4.828125 -1.445312 5.015625 -1.625 C 5.210938 -1.8125 5.363281 -2.023438 5.46875 -2.265625 C 5.570312 -2.515625 5.625 -2.785156 5.625 -3.078125 C 5.625 -3.359375 5.566406 -3.625 5.453125 -3.875 C 5.347656 -4.125 5.203125 -4.34375 5.015625 -4.53125 C 4.828125 -4.71875 4.609375 -4.863281 4.359375 -4.96875 C 4.117188 -5.070312 3.851562 -5.125 3.5625 -5.125 C 3.28125 -5.125 3.015625 -5.070312 2.765625 -4.96875 C 2.515625 -4.863281 2.296875 -4.71875 2.109375 -4.53125 C 1.921875 -4.34375 1.773438 -4.125 1.671875 -3.875 C 1.566406 -3.625 1.515625 -3.359375 1.515625 -3.078125 Z M 1.515625 -3.078125 "/></g></g></g><g fill="#0fa65d" fill-opacity="1"><g transform="translate(166.117409, 289.439097)"><g><path d="M 4.8125 -1.484375 C 4.863281 -1.515625 4.914062 -1.53125 4.96875 -1.53125 C 5.019531 -1.53125 5.054688 -1.507812 5.078125 -1.46875 L 5.546875 -0.765625 C 5.566406 -0.734375 5.566406 -0.691406 5.546875 -0.640625 C 5.535156 -0.597656 5.507812 -0.5625 5.46875 -0.53125 C 5.300781 -0.40625 5.113281 -0.296875 4.90625 -0.203125 C 4.695312 -0.109375 4.476562 -0.0351562 4.25 0.015625 C 4.019531 0.0664062 3.800781 0.09375 3.59375 0.09375 C 3.238281 0.09375 2.894531 0.0390625 2.5625 -0.0625 C 2.238281 -0.164062 1.941406 -0.3125 1.671875 -0.5 C 1.410156 -0.695312 1.179688 -0.925781 0.984375 -1.1875 C 0.785156 -1.445312 0.628906 -1.738281 0.515625 -2.0625 C 0.410156 -2.382812 0.359375 -2.722656 0.359375 -3.078125 C 0.359375 -3.429688 0.410156 -3.765625 0.515625 -4.078125 C 0.628906 -4.398438 0.785156 -4.691406 0.984375 -4.953125 C 1.179688 -5.222656 1.410156 -5.453125 1.671875 -5.640625 C 1.941406 -5.835938 2.238281 -5.988281 2.5625 -6.09375 C 2.894531 -6.207031 3.238281 -6.265625 3.59375 -6.265625 C 3.800781 -6.265625 4.019531 -6.238281 4.25 -6.1875 C 4.476562 -6.132812 4.695312 -6.054688 4.90625 -5.953125 C 5.125 -5.859375 5.316406 -5.742188 5.484375 -5.609375 C 5.535156 -5.578125 5.5625 -5.535156 5.5625 -5.484375 C 5.570312 -5.441406 5.566406 -5.40625 5.546875 -5.375 L 5.078125 -4.6875 C 5.054688 -4.644531 5.019531 -4.617188 4.96875 -4.609375 C 4.925781 -4.609375 4.878906 -4.628906 4.828125 -4.671875 C 4.648438 -4.816406 4.453125 -4.925781 4.234375 -5 C 4.015625 -5.082031 3.800781 -5.125 3.59375 -5.125 C 3.300781 -5.125 3.03125 -5.070312 2.78125 -4.96875 C 2.53125 -4.863281 2.304688 -4.71875 2.109375 -4.53125 C 1.921875 -4.34375 1.773438 -4.125 1.671875 -3.875 C 1.566406 -3.625 1.515625 -3.359375 1.515625 -3.078125 C 1.515625 -2.796875 1.566406 -2.53125 1.671875 -2.28125 C 1.773438 -2.03125 1.921875 -1.8125 2.109375 -1.625 C 2.304688 -1.445312 2.53125 -1.304688 2.78125 -1.203125 C 3.03125 -1.097656 3.300781 -1.046875 3.59375 -1.046875 C 3.789062 -1.046875 4 -1.082031 4.21875 -1.15625 C 4.4375 -1.238281 4.632812 -1.347656 4.8125 -1.484375 Z M 4.8125 -1.484375 "/></g></g></g><g fill="#0fa65d" fill-opacity="1"><g transform="translate(178.739526, 289.439097)"><g><path d="M 6.15625 -0.21875 C 6.1875 -0.15625 6.191406 -0.0976562 6.171875 -0.046875 C 6.160156 -0.00390625 6.125 0.015625 6.0625 0.015625 L 5.078125 0.015625 C 5.003906 0.015625 4.941406 -0.015625 4.890625 -0.078125 L 2.953125 -3.421875 L 1.890625 -2.359375 L 1.890625 -0.125 C 1.890625 -0.0390625 1.84375 0 1.75 0 L 0.875 0 C 0.78125 0 0.734375 -0.0390625 0.734375 -0.125 L 0.734375 -6.03125 C 0.734375 -6.125 0.78125 -6.171875 0.875 -6.171875 L 1.75 -6.171875 C 1.84375 -6.171875 1.890625 -6.125 1.890625 -6.03125 L 1.890625 -3.828125 L 4.1875 -6.046875 C 4.226562 -6.085938 4.265625 -6.117188 4.296875 -6.140625 C 4.335938 -6.160156 4.382812 -6.171875 4.4375 -6.171875 L 5.453125 -6.171875 C 5.515625 -6.171875 5.550781 -6.140625 5.5625 -6.078125 C 5.582031 -6.023438 5.570312 -5.976562 5.53125 -5.9375 L 3.78125 -4.234375 Z M 6.15625 -0.21875 "/></g></g></g><g fill="#0fa65d" fill-opacity="1"><g transform="translate(191.694295, 289.439097)"><g><path d="M 4.8125 -1.484375 C 4.863281 -1.515625 4.914062 -1.53125 4.96875 -1.53125 C 5.019531 -1.53125 5.054688 -1.507812 5.078125 -1.46875 L 5.546875 -0.765625 C 5.566406 -0.734375 5.566406 -0.691406 5.546875 -0.640625 C 5.535156 -0.597656 5.507812 -0.5625 5.46875 -0.53125 C 5.300781 -0.40625 5.113281 -0.296875 4.90625 -0.203125 C 4.695312 -0.109375 4.476562 -0.0351562 4.25 0.015625 C 4.019531 0.0664062 3.800781 0.09375 3.59375 0.09375 C 3.238281 0.09375 2.894531 0.0390625 2.5625 -0.0625 C 2.238281 -0.164062 1.941406 -0.3125 1.671875 -0.5 C 1.410156 -0.695312 1.179688 -0.925781 0.984375 -1.1875 C 0.785156 -1.445312 0.628906 -1.738281 0.515625 -2.0625 C 0.410156 -2.382812 0.359375 -2.722656 0.359375 -3.078125 C 0.359375 -3.429688 0.410156 -3.765625 0.515625 -4.078125 C 0.628906 -4.398438 0.785156 -4.691406 0.984375 -4.953125 C 1.179688 -5.222656 1.410156 -5.453125 1.671875 -5.640625 C 1.941406 -5.835938 2.238281 -5.988281 2.5625 -6.09375 C 2.894531 -6.207031 3.238281 -6.265625 3.59375 -6.265625 C 3.800781 -6.265625 4.019531 -6.238281 4.25 -6.1875 C 4.476562 -6.132812 4.695312 -6.054688 4.90625 -5.953125 C 5.125 -5.859375 5.316406 -5.742188 5.484375 -5.609375 C 5.535156 -5.578125 5.5625 -5.535156 5.5625 -5.484375 C 5.570312 -5.441406 5.566406 -5.40625 5.546875 -5.375 L 5.078125 -4.6875 C 5.054688 -4.644531 5.019531 -4.617188 4.96875 -4.609375 C 4.925781 -4.609375 4.878906 -4.628906 4.828125 -4.671875 C 4.648438 -4.816406 4.453125 -4.925781 4.234375 -5 C 4.015625 -5.082031 3.800781 -5.125 3.59375 -5.125 C 3.300781 -5.125 3.03125 -5.070312 2.78125 -4.96875 C 2.53125 -4.863281 2.304688 -4.71875 2.109375 -4.53125 C 1.921875 -4.34375 1.773438 -4.125 1.671875 -3.875 C 1.566406 -3.625 1.515625 -3.359375 1.515625 -3.078125 C 1.515625 -2.796875 1.566406 -2.53125 1.671875 -2.28125 C 1.773438 -2.03125 1.921875 -1.8125 2.109375 -1.625 C 2.304688 -1.445312 2.53125 -1.304688 2.78125 -1.203125 C 3.03125 -1.097656 3.300781 -1.046875 3.59375 -1.046875 C 3.789062 -1.046875 4 -1.082031 4.21875 -1.15625 C 4.4375 -1.238281 4.632812 -1.347656 4.8125 -1.484375 Z M 4.8125 -1.484375 "/></g></g></g><g fill="#0fa65d" fill-opacity="1"><g transform="translate(204.316411, 289.439097)"><g><path d="M 5.953125 -6.171875 C 6.046875 -6.171875 6.09375 -6.125 6.09375 -6.03125 L 6.09375 -0.125 C 6.09375 -0.0390625 6.046875 0 5.953125 0 L 5.078125 0 C 4.992188 0 4.953125 -0.0390625 4.953125 -0.125 L 4.953125 -1.953125 L 1.890625 -1.953125 L 1.890625 -0.125 C 1.890625 -0.0390625 1.84375 0 1.75 0 L 0.875 0 C 0.78125 0 0.734375 -0.0390625 0.734375 -0.125 L 0.734375 -6.03125 C 0.734375 -6.125 0.78125 -6.171875 0.875 -6.171875 L 1.75 -6.171875 C 1.84375 -6.171875 1.890625 -6.125 1.890625 -6.03125 L 1.890625 -2.96875 L 4.953125 -2.96875 L 4.953125 -6.03125 C 4.953125 -6.125 4.992188 -6.171875 5.078125 -6.171875 Z M 5.953125 -6.171875 "/></g></g></g><g fill="#0fa65d" fill-opacity="1"><g transform="translate(217.790442, 289.439097)"><g><path d="M 5.96875 -0.203125 C 6 -0.140625 6 -0.0859375 5.96875 -0.046875 C 5.945312 -0.00390625 5.90625 0.015625 5.84375 0.015625 L 4.96875 0.015625 C 4.914062 0.015625 4.867188 0 4.828125 -0.03125 C 4.796875 -0.0625 4.769531 -0.101562 4.75 -0.15625 L 4.515625 -0.75 L 1.671875 -0.75 L 1.421875 -0.15625 C 1.410156 -0.113281 1.382812 -0.078125 1.34375 -0.046875 C 1.3125 -0.015625 1.269531 0 1.21875 0 L 0.34375 0 C 0.28125 0 0.234375 -0.015625 0.203125 -0.046875 C 0.179688 -0.0859375 0.1875 -0.140625 0.21875 -0.203125 L 2.84375 -6.09375 C 2.863281 -6.132812 2.894531 -6.171875 2.9375 -6.203125 C 2.976562 -6.234375 3.019531 -6.25 3.0625 -6.25 L 3.109375 -6.25 C 3.160156 -6.25 3.203125 -6.234375 3.234375 -6.203125 C 3.273438 -6.171875 3.3125 -6.128906 3.34375 -6.078125 Z M 2.078125 -1.734375 L 4.109375 -1.734375 L 3.09375 -4.1875 Z M 2.078125 -1.734375 "/></g></g></g><g fill="#0fa65d" fill-opacity="1"><g transform="translate(230.615401, 289.439097)"><g><path d="M 1.875 -6.03125 L 1.875 -0.125 C 1.875 -0.0390625 1.828125 0 1.734375 0 L 0.875 0 C 0.78125 0 0.734375 -0.0390625 0.734375 -0.125 L 0.734375 -6.03125 C 0.734375 -6.125 0.78125 -6.171875 0.875 -6.171875 L 1.734375 -6.171875 C 1.828125 -6.171875 1.875 -6.125 1.875 -6.03125 Z M 1.875 -6.03125 "/></g></g></g><g fill="#0fa65d" fill-opacity="1"><g transform="translate(239.874491, 289.439097)"><g><path d="M 6.09375 -6.171875 C 6.175781 -6.171875 6.21875 -6.128906 6.21875 -6.046875 L 6.21875 -0.109375 C 6.21875 -0.046875 6.203125 0 6.171875 0.03125 C 6.148438 0.0625 6.113281 0.078125 6.0625 0.078125 C 6.007812 0.078125 5.960938 0.0625 5.921875 0.03125 C 5.890625 0 5.851562 -0.03125 5.8125 -0.0625 L 1.890625 -3.796875 L 1.890625 -0.125 C 1.890625 -0.0390625 1.84375 0 1.75 0 L 0.875 0 C 0.78125 0 0.734375 -0.0390625 0.734375 -0.125 L 0.734375 -6.0625 C 0.734375 -6.113281 0.742188 -6.15625 0.765625 -6.1875 C 0.796875 -6.226562 0.835938 -6.25 0.890625 -6.25 L 0.90625 -6.25 C 0.945312 -6.25 0.984375 -6.234375 1.015625 -6.203125 C 1.046875 -6.171875 1.082031 -6.132812 1.125 -6.09375 L 5.078125 -2.359375 L 5.078125 -6.046875 C 5.078125 -6.128906 5.125 -6.171875 5.21875 -6.171875 Z M 6.09375 -6.171875 "/></g></g></g><g fill="#0fa65d" fill-opacity="1"><g transform="translate(147.745005, 300.516682)"><g><path d="M 4.671875 -1 C 4.753906 -1 4.796875 -0.957031 4.796875 -0.875 L 4.796875 -0.140625 C 4.796875 -0.046875 4.753906 0 4.671875 0 L 0.875 0 C 0.78125 0 0.734375 -0.046875 0.734375 -0.140625 L 0.734375 -6.03125 C 0.734375 -6.125 0.78125 -6.171875 0.875 -6.171875 L 1.75 -6.171875 C 1.84375 -6.171875 1.890625 -6.125 1.890625 -6.03125 L 1.890625 -1 Z M 4.671875 -1 "/></g></g></g><g fill="#0fa65d" fill-opacity="1"><g transform="translate(159.348884, 300.516682)"><g><path d="M 0.359375 -3.078125 C 0.359375 -3.429688 0.410156 -3.765625 0.515625 -4.078125 C 0.628906 -4.398438 0.78125 -4.691406 0.96875 -4.953125 C 1.164062 -5.222656 1.394531 -5.453125 1.65625 -5.640625 C 1.925781 -5.835938 2.222656 -5.988281 2.546875 -6.09375 C 2.867188 -6.207031 3.207031 -6.265625 3.5625 -6.265625 C 3.914062 -6.265625 4.253906 -6.207031 4.578125 -6.09375 C 4.898438 -5.988281 5.191406 -5.835938 5.453125 -5.640625 C 5.722656 -5.453125 5.957031 -5.222656 6.15625 -4.953125 C 6.351562 -4.691406 6.503906 -4.398438 6.609375 -4.078125 C 6.710938 -3.765625 6.765625 -3.429688 6.765625 -3.078125 C 6.765625 -2.710938 6.710938 -2.367188 6.609375 -2.046875 C 6.503906 -1.734375 6.351562 -1.445312 6.15625 -1.1875 C 5.957031 -0.925781 5.722656 -0.695312 5.453125 -0.5 C 5.191406 -0.3125 4.898438 -0.164062 4.578125 -0.0625 C 4.253906 0.0390625 3.914062 0.09375 3.5625 0.09375 C 3.207031 0.09375 2.867188 0.0390625 2.546875 -0.0625 C 2.222656 -0.164062 1.925781 -0.3125 1.65625 -0.5 C 1.394531 -0.695312 1.164062 -0.925781 0.96875 -1.1875 C 0.78125 -1.445312 0.628906 -1.734375 0.515625 -2.046875 C 0.410156 -2.367188 0.359375 -2.710938 0.359375 -3.078125 Z M 1.515625 -3.078125 C 1.515625 -2.785156 1.566406 -2.515625 1.671875 -2.265625 C 1.773438 -2.023438 1.921875 -1.8125 2.109375 -1.625 C 2.296875 -1.445312 2.515625 -1.304688 2.765625 -1.203125 C 3.015625 -1.097656 3.28125 -1.046875 3.5625 -1.046875 C 3.851562 -1.046875 4.117188 -1.097656 4.359375 -1.203125 C 4.609375 -1.304688 4.828125 -1.445312 5.015625 -1.625 C 5.210938 -1.8125 5.363281 -2.023438 5.46875 -2.265625 C 5.570312 -2.515625 5.625 -2.785156 5.625 -3.078125 C 5.625 -3.359375 5.566406 -3.625 5.453125 -3.875 C 5.347656 -4.125 5.203125 -4.34375 5.015625 -4.53125 C 4.828125 -4.71875 4.609375 -4.863281 4.359375 -4.96875 C 4.117188 -5.070312 3.851562 -5.125 3.5625 -5.125 C 3.28125 -5.125 3.015625 -5.070312 2.765625 -4.96875 C 2.515625 -4.863281 2.296875 -4.71875 2.109375 -4.53125 C 1.921875 -4.34375 1.773438 -4.125 1.671875 -3.875 C 1.566406 -3.625 1.515625 -3.359375 1.515625 -3.078125 Z M 1.515625 -3.078125 "/></g></g></g><g fill="#0fa65d" fill-opacity="1"><g transform="translate(173.119057, 300.516682)"><g><path d="M 0.234375 -5.34375 L 0.234375 -5.984375 C 0.234375 -6.109375 0.296875 -6.171875 0.421875 -6.171875 L 4.640625 -6.171875 C 4.691406 -6.171875 4.734375 -6.148438 4.765625 -6.109375 C 4.796875 -6.078125 4.8125 -6.035156 4.8125 -5.984375 L 4.8125 -5.34375 C 4.8125 -5.21875 4.753906 -5.15625 4.640625 -5.15625 L 3.09375 -5.15625 L 3.09375 -0.171875 C 3.09375 -0.0546875 3.035156 0 2.921875 0 L 2.125 0 C 2.007812 0 1.953125 -0.0546875 1.953125 -0.171875 L 1.953125 -5.15625 L 0.421875 -5.15625 C 0.367188 -5.15625 0.320312 -5.171875 0.28125 -5.203125 C 0.25 -5.234375 0.234375 -5.28125 0.234375 -5.34375 Z M 0.234375 -5.34375 "/></g></g></g><g fill="#0fa65d" fill-opacity="1"><g transform="translate(184.820298, 300.516682)"><g><path d="M 0.234375 -5.34375 L 0.234375 -5.984375 C 0.234375 -6.109375 0.296875 -6.171875 0.421875 -6.171875 L 4.640625 -6.171875 C 4.691406 -6.171875 4.734375 -6.148438 4.765625 -6.109375 C 4.796875 -6.078125 4.8125 -6.035156 4.8125 -5.984375 L 4.8125 -5.34375 C 4.8125 -5.21875 4.753906 -5.15625 4.640625 -5.15625 L 3.09375 -5.15625 L 3.09375 -0.171875 C 3.09375 -0.0546875 3.035156 0 2.921875 0 L 2.125 0 C 2.007812 0 1.953125 -0.0546875 1.953125 -0.171875 L 1.953125 -5.15625 L 0.421875 -5.15625 C 0.367188 -5.15625 0.320312 -5.171875 0.28125 -5.203125 C 0.25 -5.234375 0.234375 -5.28125 0.234375 -5.34375 Z M 0.234375 -5.34375 "/></g></g></g><g fill="#0fa65d" fill-opacity="1"><g transform="translate(196.521537, 300.516682)"><g><path d="M 5.203125 -1.09375 C 5.273438 -1.09375 5.332031 -1.070312 5.375 -1.03125 C 5.425781 -0.988281 5.453125 -0.929688 5.453125 -0.859375 L 5.453125 -0.171875 C 5.453125 -0.117188 5.429688 -0.078125 5.390625 -0.046875 C 5.359375 -0.015625 5.316406 0 5.265625 0 L 0.921875 0 C 0.796875 0 0.734375 -0.0546875 0.734375 -0.171875 L 0.734375 -5.984375 C 0.734375 -6.109375 0.796875 -6.171875 0.921875 -6.171875 L 5.171875 -6.171875 C 5.234375 -6.171875 5.28125 -6.148438 5.3125 -6.109375 C 5.34375 -6.078125 5.359375 -6.035156 5.359375 -5.984375 L 5.359375 -5.265625 C 5.359375 -5.140625 5.296875 -5.078125 5.171875 -5.078125 L 1.890625 -5.078125 L 1.890625 -3.375 L 4.453125 -3.375 C 4.523438 -3.375 4.578125 -3.359375 4.609375 -3.328125 C 4.648438 -3.296875 4.671875 -3.25 4.671875 -3.1875 L 4.671875 -2.515625 C 4.671875 -2.453125 4.648438 -2.40625 4.609375 -2.375 C 4.578125 -2.34375 4.523438 -2.328125 4.453125 -2.328125 L 1.890625 -2.328125 L 1.890625 -1.09375 Z M 5.203125 -1.09375 "/></g></g></g><g fill="#0fa65d" fill-opacity="1"><g transform="translate(209.026008, 300.516682)"><g><path d="M 4.609375 -1.828125 L 5.4375 -0.203125 C 5.46875 -0.148438 5.472656 -0.101562 5.453125 -0.0625 C 5.429688 -0.0195312 5.382812 0 5.3125 0 L 4.421875 0 C 4.390625 0 4.351562 -0.0078125 4.3125 -0.03125 C 4.269531 -0.0625 4.238281 -0.0976562 4.21875 -0.140625 L 3.578125 -1.453125 C 3.515625 -1.441406 3.445312 -1.429688 3.375 -1.421875 C 3.300781 -1.421875 3.226562 -1.421875 3.15625 -1.421875 L 1.890625 -1.421875 L 1.890625 -0.171875 C 1.890625 -0.117188 1.867188 -0.078125 1.828125 -0.046875 C 1.796875 -0.015625 1.753906 0 1.703125 0 L 0.921875 0 C 0.867188 0 0.820312 -0.015625 0.78125 -0.046875 C 0.75 -0.078125 0.734375 -0.117188 0.734375 -0.171875 L 0.734375 -5.984375 C 0.734375 -6.035156 0.75 -6.078125 0.78125 -6.109375 C 0.820312 -6.148438 0.867188 -6.171875 0.921875 -6.171875 L 1.125 -6.171875 C 1.238281 -6.171875 1.351562 -6.171875 1.46875 -6.171875 C 1.582031 -6.171875 1.664062 -6.171875 1.71875 -6.171875 L 3.15625 -6.171875 C 3.519531 -6.171875 3.851562 -6.109375 4.15625 -5.984375 C 4.457031 -5.867188 4.71875 -5.703125 4.9375 -5.484375 C 5.164062 -5.273438 5.34375 -5.023438 5.46875 -4.734375 C 5.59375 -4.441406 5.65625 -4.125 5.65625 -3.78125 C 5.65625 -3.351562 5.5625 -2.972656 5.375 -2.640625 C 5.1875 -2.304688 4.929688 -2.035156 4.609375 -1.828125 Z M 3.078125 -2.375 C 3.359375 -2.375 3.601562 -2.429688 3.8125 -2.546875 C 4.03125 -2.671875 4.195312 -2.835938 4.3125 -3.046875 C 4.4375 -3.265625 4.5 -3.507812 4.5 -3.78125 C 4.5 -3.976562 4.460938 -4.160156 4.390625 -4.328125 C 4.328125 -4.503906 4.226562 -4.648438 4.09375 -4.765625 C 3.96875 -4.890625 3.816406 -4.984375 3.640625 -5.046875 C 3.472656 -5.117188 3.285156 -5.15625 3.078125 -5.15625 L 1.890625 -5.15625 L 1.890625 -2.375 Z M 3.078125 -2.375 "/></g></g></g><g fill="#0fa65d" fill-opacity="1"><g transform="translate(221.826621, 300.516682)"><g><path d="M 5.1875 -6.171875 C 5.25 -6.171875 5.289062 -6.148438 5.3125 -6.109375 C 5.332031 -6.078125 5.332031 -6.023438 5.3125 -5.953125 L 3.28125 -2.4375 L 3.28125 -0.171875 C 3.28125 -0.0546875 3.222656 0 3.109375 0 L 2.328125 0 C 2.203125 0 2.140625 -0.0546875 2.140625 -0.171875 L 2.140625 -2.453125 L 0.125 -5.953125 C 0.09375 -6.023438 0.0859375 -6.078125 0.109375 -6.109375 C 0.140625 -6.148438 0.1875 -6.171875 0.25 -6.171875 L 1.171875 -6.171875 C 1.210938 -6.171875 1.25 -6.15625 1.28125 -6.125 C 1.320312 -6.09375 1.359375 -6.054688 1.390625 -6.015625 L 2.71875 -3.609375 L 4.03125 -6.015625 C 4.09375 -6.117188 4.171875 -6.171875 4.265625 -6.171875 Z M 5.1875 -6.171875 "/></g></g></g></svg>